<svg width="160" height="160" viewBox="0 0 160 160" fill="none" xmlns="http://www.w3.org/2000/svg">
<g clip-path="url(#clip0_1925_460)" class="circle__inner">
<path fill-rule="evenodd" clip-rule="evenodd" d="M116.432 76.3001C116.009 76.3968 115.785 76.7906 115.847 77.1988C115.907 77.6061 116.298 77.879 116.717 77.8083C117.136 77.7367 117.422 77.3294 117.356 76.8989C117.292 76.4665 116.837 76.2072 116.432 76.3001Z" fill="#FCFCFC"/>
<path fill-rule="evenodd" clip-rule="evenodd" d="M115.213 72.1641C114.814 72.3121 114.605 72.7475 114.746 73.1345C114.888 73.5205 115.331 73.7324 115.737 73.6066C116.143 73.4808 116.353 73.0465 116.203 72.6362C116.055 72.226 115.611 72.0151 115.213 72.1641Z" fill="#FCFCFC"/>
<path fill-rule="evenodd" clip-rule="evenodd" d="M113.494 68.2093C113.118 68.4095 112.957 68.873 113.135 69.2445C113.314 69.616 113.771 69.7727 114.158 69.5937C114.542 69.4138 114.704 68.9513 114.516 68.5585C114.327 68.1657 113.869 68.01 113.494 68.2093Z" fill="#FCFCFC"/>
<path fill-rule="evenodd" clip-rule="evenodd" d="M111.255 64.5271C110.904 64.7777 110.838 65.2353 111.062 65.5807C111.275 65.9329 111.739 66.0344 112.099 65.8061C112.458 65.5788 112.566 65.0921 112.341 64.7187C112.105 64.3549 111.598 64.2833 111.255 64.5271Z" fill="#FCFCFC"/>
<path fill-rule="evenodd" clip-rule="evenodd" d="M108.553 61.1749C108.242 61.4661 108.212 61.9489 108.489 62.2537C108.765 62.5584 109.254 62.5855 109.581 62.3127C109.908 62.0399 109.937 61.5561 109.646 61.234C109.354 60.9108 108.864 60.8847 108.553 61.1749Z" fill="#FCFCFC"/>
<path fill-rule="evenodd" clip-rule="evenodd" d="M105.467 58.1757C105.196 58.5046 105.221 58.9971 105.525 59.2748C105.829 59.5524 106.309 59.5234 106.598 59.2099C106.888 58.8965 106.861 58.405 106.539 58.1109C106.218 57.8177 105.739 57.8468 105.467 58.1757Z" fill="#FCFCFC"/>
<path fill-rule="evenodd" clip-rule="evenodd" d="M101.993 55.6429C101.766 56.0047 101.867 56.471 102.217 56.6848C102.559 56.9103 103.015 56.8445 103.265 56.4913C103.507 56.1479 103.436 55.6371 103.073 55.3991C102.703 55.1717 102.219 55.281 101.993 55.6429Z" fill="#FCFCFC"/>
<path fill-rule="evenodd" clip-rule="evenodd" d="M98.2274 53.5734C98.0485 53.9613 98.2053 54.4218 98.5747 54.6018C98.9431 54.7808 99.404 54.6192 99.6021 54.2409C99.8013 53.8626 99.6464 53.4031 99.2558 53.2135C98.8652 53.0239 98.4034 53.1854 98.2274 53.5734Z" fill="#FCFCFC"/>
<path fill-rule="evenodd" clip-rule="evenodd" d="M94.2359 51.9838C94.1098 52.3921 94.3205 52.8381 94.7053 52.9803C95.0901 53.1216 95.5231 52.9126 95.6712 52.512C95.8174 52.1106 95.6077 51.6645 95.2008 51.5146C94.7929 51.3656 94.3619 51.5746 94.2359 51.9838Z" fill="#FCFCFC"/>
<path fill-rule="evenodd" clip-rule="evenodd" d="M90.056 50.9971C89.9858 51.4189 90.2571 51.8107 90.663 51.8717C91.069 51.9326 91.4596 51.7091 91.5558 51.2835C91.6481 50.8762 91.3903 50.4195 90.9622 50.3537C90.5322 50.287 90.1281 50.5753 90.056 50.9971Z" fill="#FCFCFC"/>
<path fill-rule="evenodd" clip-rule="evenodd" d="M85.79 50.5448C85.7746 50.9715 86.094 51.3353 86.5038 51.3565C86.9136 51.3778 87.2772 51.0489 87.3157 50.6222C87.3552 50.1975 87.0358 49.8337 86.6038 49.8115C86.169 49.7892 85.8063 50.1182 85.79 50.5448Z" fill="#FCFCFC"/>
<path fill-rule="evenodd" clip-rule="evenodd" d="M81.5005 50.6228C81.54 51.0485 81.9036 51.3775 82.3135 51.3571C82.7243 51.3368 83.0436 50.9731 83.0273 50.5454C83.0109 50.1178 82.6463 49.7899 82.2134 49.8121C81.7815 49.8344 81.4621 50.1981 81.5005 50.6228Z" fill="#FCFCFC"/>
<path fill-rule="evenodd" clip-rule="evenodd" d="M77.259 51.2835C77.3552 51.7092 77.7468 51.9336 78.1528 51.8717C78.5578 51.8107 78.8291 51.418 78.7588 50.9971C78.6876 50.5753 78.2826 50.2879 77.8545 50.3537C77.4235 50.4195 77.1667 50.8762 77.259 51.2835Z" fill="#FCFCFC"/>
<path fill-rule="evenodd" clip-rule="evenodd" d="M73.1454 52.5121C73.2926 52.9126 73.7255 53.1225 74.1103 52.9803C74.4942 52.8381 74.7048 52.3921 74.5798 51.9838C74.4547 51.5746 74.0228 51.3647 73.6149 51.5146C73.2079 51.6646 72.9982 52.1106 73.1454 52.5121Z" fill="#FCFCFC"/>
<path fill-rule="evenodd" clip-rule="evenodd" d="M69.2127 54.2399C69.4118 54.6182 69.8726 54.7798 70.2421 54.6008C70.6115 54.4209 70.7673 53.9613 70.5893 53.5724C70.4104 53.1844 69.9506 53.0229 69.56 53.2125C69.1694 53.4021 69.0145 53.8626 69.2127 54.2399Z" fill="#FCFCFC"/>
<path fill-rule="evenodd" clip-rule="evenodd" d="M65.5523 56.4904C65.8014 56.8435 66.2565 56.9103 66.5999 56.6839C66.9501 56.4701 67.0511 56.0037 66.8241 55.6419C66.598 55.281 66.1141 55.1717 65.7427 55.3981C65.381 55.6371 65.3098 56.1469 65.5523 56.4904Z" fill="#FCFCFC"/>
<path fill-rule="evenodd" clip-rule="evenodd" d="M62.2189 59.209C62.5085 59.5224 62.9885 59.5514 63.2915 59.2738C63.5946 58.9961 63.6215 58.5037 63.3502 58.1747C63.0789 57.8458 62.5979 57.8168 62.2776 58.1099C61.9553 58.404 61.9303 58.8955 62.2189 59.209Z" fill="#FCFCFC"/>
<path fill-rule="evenodd" clip-rule="evenodd" d="M59.2356 62.3127C59.5627 62.5855 60.0524 62.5594 60.3285 62.2537C60.6046 61.948 60.5757 61.4662 60.264 61.1749C59.9523 60.8847 59.4636 60.9108 59.1712 61.234C58.8797 61.5561 58.9085 62.0399 59.2356 62.3127Z" fill="#FCFCFC"/>
<path fill-rule="evenodd" clip-rule="evenodd" d="M56.717 65.8061C57.0768 66.0335 57.5404 65.9328 57.7531 65.5807C57.9772 65.2363 57.9118 64.7777 57.5607 64.5271C57.2191 64.2833 56.7112 64.3549 56.4745 64.7187C56.2494 65.0921 56.3581 65.5788 56.717 65.8061Z" fill="#FCFCFC"/>
<path fill-rule="evenodd" clip-rule="evenodd" d="M54.6591 69.5937C55.0449 69.7727 55.5028 69.615 55.6817 69.2445C55.8597 68.872 55.699 68.4095 55.3229 68.2093C54.9467 68.01 54.4898 68.1657 54.3012 68.5585C54.1127 68.9513 54.2733 69.4147 54.6591 69.5937Z" fill="#FCFCFC"/>
<path fill-rule="evenodd" clip-rule="evenodd" d="M53.0794 73.6066C53.4854 73.7324 53.9289 73.5205 54.0703 73.1345C54.2107 72.7475 54.0029 72.3121 53.6047 72.1641C53.2054 72.0161 52.7619 72.226 52.6128 72.6362C52.4637 73.0464 52.6725 73.4808 53.0794 73.6066Z" fill="#FCFCFC"/>
<path fill-rule="evenodd" clip-rule="evenodd" d="M52.0974 77.8084C52.5168 77.879 52.9064 77.6062 52.967 77.1989C53.0276 76.7906 52.8054 76.3969 52.3821 76.3001C51.9771 76.2072 51.523 76.4665 51.4576 76.898C51.3922 77.3295 51.6789 77.7358 52.0974 77.8084Z" fill="#FCFCFC"/>
<path fill-rule="evenodd" clip-rule="evenodd" d="M51.6493 82.1009C52.0735 82.1174 52.4353 81.7962 52.4564 81.3831C52.4766 80.9709 52.1505 80.6052 51.7262 80.5655C51.3039 80.5268 50.9422 80.848 50.9201 81.2824C50.897 81.7188 51.2241 82.0854 51.6493 82.1009Z" fill="#FCFCFC"/>
<path fill-rule="evenodd" clip-rule="evenodd" d="M51.7256 86.4137C52.1489 86.375 52.476 86.0093 52.4558 85.5962C52.4356 85.184 52.0739 84.8628 51.6486 84.8793C51.2234 84.8957 50.8973 85.2614 50.9194 85.6968C50.9406 86.1321 51.3023 86.4533 51.7256 86.4137Z" fill="#FCFCFC"/>
<path fill-rule="evenodd" clip-rule="evenodd" d="M52.382 90.6778C52.8053 90.581 53.0285 90.1873 52.967 89.779C52.9054 89.3707 52.5158 89.0989 52.0973 89.1695C51.6778 89.2411 51.3921 89.6484 51.4575 90.0789C51.523 90.5094 51.977 90.7706 52.382 90.6778Z" fill="#FCFCFC"/>
<path fill-rule="evenodd" clip-rule="evenodd" d="M53.6047 94.8164C54.003 94.6684 54.2117 94.233 54.0703 93.846C53.9289 93.4591 53.4854 93.2472 53.0794 93.3739C52.6725 93.4997 52.4637 93.9341 52.6128 94.3443C52.7619 94.7526 53.2054 94.9644 53.6047 94.8164Z" fill="#FCFCFC"/>
<path fill-rule="evenodd" clip-rule="evenodd" d="M55.3229 98.7706C55.6991 98.5713 55.8597 98.1069 55.6817 97.7363C55.5028 97.3648 55.0458 97.2081 54.6591 97.3871C54.2724 97.5661 54.1127 98.0295 54.3012 98.4223C54.4898 98.8151 54.9468 98.9708 55.3229 98.7706Z" fill="#FCFCFC"/>
<path fill-rule="evenodd" clip-rule="evenodd" d="M57.5606 102.453C57.9118 102.201 57.9781 101.745 57.753 101.399C57.5404 101.046 57.0767 100.945 56.7169 101.174C56.3581 101.401 56.2494 101.888 56.4745 102.26C56.7112 102.625 57.2191 102.697 57.5606 102.453Z" fill="#FCFCFC"/>
<path fill-rule="evenodd" clip-rule="evenodd" d="M60.264 105.805C60.5757 105.514 60.6046 105.031 60.3285 104.725C60.0524 104.421 59.5627 104.395 59.2356 104.667C58.9085 104.94 58.8797 105.423 59.1712 105.746C59.4636 106.07 59.9514 106.095 60.264 105.805Z" fill="#FCFCFC"/>
<path fill-rule="evenodd" clip-rule="evenodd" d="M63.3502 108.805C63.6215 108.476 63.5955 107.984 63.2915 107.706C62.9875 107.429 62.5084 107.458 62.2189 107.771C61.9302 108.084 61.9562 108.576 62.2775 108.869C62.5969 109.163 63.0779 109.134 63.3502 108.805Z" fill="#FCFCFC"/>
<path fill-rule="evenodd" clip-rule="evenodd" d="M66.824 111.337C67.0501 110.976 66.95 110.51 66.5999 110.295C66.2574 110.071 65.8014 110.137 65.5522 110.49C65.3098 110.833 65.381 111.343 65.7427 111.582C66.114 111.808 66.5979 111.699 66.824 111.337Z" fill="#FCFCFC"/>
<path fill-rule="evenodd" clip-rule="evenodd" d="M70.5903 113.407C70.7683 113.019 70.6115 112.559 70.243 112.379C69.8727 112.2 69.4128 112.362 69.2137 112.74C69.0155 113.118 69.1704 113.578 69.561 113.767C69.9515 113.957 70.4114 113.794 70.5903 113.407Z" fill="#FCFCFC"/>
<path fill-rule="evenodd" clip-rule="evenodd" d="M74.5798 114.996C74.7048 114.588 74.4941 114.141 74.1103 113.999C73.7255 113.858 73.2926 114.067 73.1454 114.468C72.9982 114.868 73.2069 115.315 73.6148 115.464C74.0227 115.615 74.4557 115.404 74.5798 114.996Z" fill="#FCFCFC"/>
<path fill-rule="evenodd" clip-rule="evenodd" d="M78.7579 115.982C78.8281 115.56 78.5568 115.168 78.1518 115.107C77.7458 115.046 77.3543 115.27 77.2581 115.695C77.1657 116.103 77.4236 116.559 77.8526 116.625C78.2817 116.691 78.6867 116.403 78.7579 115.982Z" fill="#FCFCFC"/>
<path d="M117.237 83.4899C117.237 101.724 102.539 116.505 84.4074 116.505M84.4074 116.505L91.3369 109.535M84.4074 116.505L91.3369 123.473" stroke="#FCFCFC" stroke-miterlimit="10"/>
</g>
<g clip-path="url(#clip1_1925_460)" class="circle__out">
<path fill-rule="evenodd" clip-rule="evenodd" d="M59.9487 130.557C60.259 129.932 60.0052 129.257 59.4457 128.921C58.8884 128.585 58.1612 128.796 57.824 129.388C57.487 129.982 57.694 130.749 58.2844 131.102C58.8762 131.459 59.6522 131.154 59.9487 130.557Z" fill="#FCFCFC"/>
<path fill-rule="evenodd" clip-rule="evenodd" d="M66.2199 133.217C66.4434 132.571 66.1244 131.871 65.5101 131.656C64.897 131.442 64.1905 131.78 63.9331 132.412C63.6756 133.044 63.9925 133.744 64.6438 133.972C65.2932 134.202 65.9986 133.863 66.2199 133.217Z" fill="#FCFCFC"/>
<path fill-rule="evenodd" clip-rule="evenodd" d="M72.7746 135.072C72.9111 134.402 72.5093 133.734 71.8769 133.58C71.2435 133.428 70.5905 133.838 70.4173 134.5C70.2473 135.16 70.647 135.828 71.3151 135.992C71.985 136.153 72.6378 135.74 72.7746 135.072Z" fill="#FCFCFC"/>
<path fill-rule="evenodd" clip-rule="evenodd" d="M79.5224 136.006C79.5724 135.316 79.0822 134.771 78.435 134.701C77.7901 134.611 77.1975 135.085 77.1116 135.764C77.0256 136.44 77.5083 137.066 78.1907 137.163C78.873 137.236 79.4729 136.678 79.5224 136.006Z" fill="#FCFCFC"/>
<path fill-rule="evenodd" clip-rule="evenodd" d="M86.3375 136.029C86.2971 135.348 85.7394 134.823 85.0891 134.859C84.4387 134.895 83.9105 135.477 83.9119 136.159C83.9134 136.842 84.4733 137.366 85.1604 137.329C85.8487 137.293 86.3767 136.709 86.3375 136.029Z" fill="#FCFCFC"/>
<path fill-rule="evenodd" clip-rule="evenodd" d="M93.1109 135.218C92.9837 134.549 92.3597 134.082 91.7132 134.181C91.0686 134.278 90.6184 134.904 90.7073 135.581C90.7961 136.258 91.4219 136.721 92.105 136.618C92.7869 136.514 93.2361 135.889 93.1109 135.218Z" fill="#FCFCFC"/>
<path fill-rule="evenodd" clip-rule="evenodd" d="M99.7086 133.454C99.4976 132.806 98.8276 132.46 98.2131 132.68C97.5922 132.879 97.2121 133.511 97.3892 134.179C97.5623 134.828 98.2563 135.255 98.9129 135.044C99.5644 134.813 99.9206 134.1 99.7086 133.454Z" fill="#FCFCFC"/>
<path fill-rule="evenodd" clip-rule="evenodd" d="M106.037 130.859C105.745 130.244 105.026 129.974 104.433 130.252C103.843 130.53 103.573 131.266 103.834 131.895C104.093 132.525 104.809 132.796 105.435 132.502C106.061 132.207 106.331 131.469 106.037 130.859Z" fill="#FCFCFC"/>
<path fill-rule="evenodd" clip-rule="evenodd" d="M112.009 127.498C111.64 126.928 110.883 126.74 110.321 127.075C109.76 127.411 109.577 128.161 109.915 128.75C110.256 129.337 111.011 129.527 111.605 129.172C112.199 128.815 112.38 128.068 112.009 127.498Z" fill="#FCFCFC"/>
<path fill-rule="evenodd" clip-rule="evenodd" d="M117.437 123.294C116.994 122.78 116.243 122.722 115.758 123.166C115.273 123.609 115.15 124.321 115.571 124.871C115.974 125.397 116.791 125.537 117.304 125.071C117.82 124.603 117.877 123.809 117.437 123.294Z" fill="#FCFCFC"/>
<path fill-rule="evenodd" clip-rule="evenodd" d="M122.302 118.442C121.798 117.992 121.032 118.022 120.592 118.511C120.151 118.999 120.184 119.784 120.665 120.263C121.142 120.741 121.908 120.711 122.372 120.196C122.839 119.677 122.805 118.894 122.302 118.442Z" fill="#FCFCFC"/>
<path fill-rule="evenodd" clip-rule="evenodd" d="M126.547 113.026C125.989 112.645 125.22 112.766 124.831 113.296C124.44 113.828 124.56 114.593 125.097 115.004C125.634 115.416 126.403 115.293 126.813 114.732C127.223 114.172 127.103 113.407 126.547 113.026Z" fill="#FCFCFC"/>
<path fill-rule="evenodd" clip-rule="evenodd" d="M130.03 107.082C129.414 106.772 128.745 107.033 128.41 107.6C128.074 108.166 128.278 108.9 128.862 109.238C129.447 109.575 130.207 109.361 130.56 108.762C130.916 108.16 130.619 107.379 130.03 107.082Z" fill="#FCFCFC"/>
<path fill-rule="evenodd" clip-rule="evenodd" d="M132.696 100.723C132.059 100.502 131.365 100.828 131.149 101.451C130.934 102.072 131.264 102.785 131.888 103.041C132.513 103.299 133.205 102.974 133.435 102.315C133.664 101.657 133.333 100.945 132.696 100.723Z" fill="#FCFCFC"/>
<path fill-rule="evenodd" clip-rule="evenodd" d="M134.569 94.0849C133.907 93.9506 133.244 94.3608 133.088 95.0012C132.934 95.6425 133.336 96.3006 133.989 96.4719C134.643 96.6411 135.304 96.2321 135.469 95.5546C135.633 94.8771 135.228 94.2193 134.569 94.0849Z" fill="#FCFCFC"/>
<path fill-rule="evenodd" clip-rule="evenodd" d="M135.53 87.2577C134.848 87.2111 134.307 87.7098 134.235 88.3658C134.141 89.0174 134.607 89.614 135.277 89.697C135.945 89.7801 136.568 89.2885 136.668 88.5978C136.742 87.9064 136.194 87.3029 135.53 87.2577Z" fill="#FCFCFC"/>
<path fill-rule="evenodd" clip-rule="evenodd" d="M135.591 80.3646C134.916 80.4083 134.395 80.9763 134.427 81.6338C134.458 82.2912 135.031 82.8221 135.706 82.8167C136.381 82.8114 136.903 82.2422 136.87 81.5476C136.837 80.8496 136.264 80.3221 135.591 80.3646Z" fill="#FCFCFC"/>
<path fill-rule="evenodd" clip-rule="evenodd" d="M134.828 73.5183C134.165 73.6497 133.702 74.2854 133.795 74.9376C133.888 75.5899 134.504 76.0406 135.174 75.9469C135.842 75.8522 136.305 75.2178 136.207 74.5275C136.109 73.8395 135.491 73.3869 134.828 73.5183Z" fill="#FCFCFC"/>
<path fill-rule="evenodd" clip-rule="evenodd" d="M133.121 66.8564C132.48 67.0744 132.134 67.753 132.348 68.3732C132.54 68.9999 133.165 69.3817 133.825 69.1978C134.468 69.0191 134.894 68.3148 134.691 67.653C134.463 66.9958 133.761 66.6395 133.121 66.8564Z" fill="#FCFCFC"/>
<path fill-rule="evenodd" clip-rule="evenodd" d="M130.59 60.4708C129.982 60.77 129.711 61.4991 129.981 62.0959C130.255 62.6935 130.98 62.9607 131.605 62.6949C132.228 62.4282 132.5 61.7023 132.213 61.071C131.925 60.4397 131.198 60.1716 130.59 60.4708Z" fill="#FCFCFC"/>
<path fill-rule="evenodd" clip-rule="evenodd" d="M127.301 54.4524C126.737 54.8305 126.547 55.5963 126.874 56.1621C127.203 56.7277 127.943 56.9088 128.526 56.5628C129.11 56.2155 129.303 55.4517 128.954 54.8519C128.606 54.2521 127.865 54.0731 127.301 54.4524Z" fill="#FCFCFC"/>
<path fill-rule="evenodd" clip-rule="evenodd" d="M123.176 48.987C122.665 49.4375 122.604 50.1979 123.038 50.6846C123.474 51.1723 124.178 51.2935 124.724 50.8645C125.247 50.4544 125.39 49.6276 124.931 49.1104C124.472 48.5933 123.687 48.5396 123.176 48.987Z" fill="#FCFCFC"/>
<path fill-rule="evenodd" clip-rule="evenodd" d="M118.404 44.0945C117.955 44.6058 117.98 45.3802 118.462 45.8238C118.943 46.2652 119.718 46.2287 120.196 45.7409C120.67 45.2545 120.645 44.4801 120.138 44.0138C119.63 43.5445 118.853 43.5811 118.404 44.0945Z" fill="#FCFCFC"/>
<path fill-rule="evenodd" clip-rule="evenodd" d="M113.073 39.8341C112.692 40.3998 112.806 41.1761 113.33 41.5682C113.852 41.9593 114.609 41.8336 115.019 41.288C115.429 40.7423 115.314 39.9672 114.761 39.555C114.209 39.1417 113.453 39.2673 113.073 39.8341Z" fill="#FCFCFC"/>
<path fill-rule="evenodd" clip-rule="evenodd" d="M107.216 36.3443C106.906 36.9686 107.16 37.644 107.719 37.9797C108.278 38.3155 109.004 38.1052 109.341 37.5132C109.678 36.9191 109.471 36.1522 108.88 35.7988C108.29 35.4454 107.513 35.7465 107.216 36.3443Z" fill="#FCFCFC"/>
<path fill-rule="evenodd" clip-rule="evenodd" d="M100.941 33.6855C100.719 34.3306 101.038 35.03 101.652 35.2449C102.266 35.4597 102.973 35.1219 103.229 34.4888C103.487 33.8555 103.169 33.157 102.519 32.9283C101.871 32.7015 101.165 33.0393 100.941 33.6855Z" fill="#FCFCFC"/>
<path fill-rule="evenodd" clip-rule="evenodd" d="M94.3882 31.83C94.2505 32.4993 94.6535 33.1682 95.2847 33.321C95.9181 33.4735 96.5711 33.0632 96.7443 32.4013C96.9174 31.7394 96.5146 31.0726 95.8456 30.9105C95.1766 30.7485 94.5247 31.1597 94.3882 31.83Z" fill="#FCFCFC"/>
<path fill-rule="evenodd" clip-rule="evenodd" d="M87.641 30.8953C87.5922 31.5862 88.0812 32.13 88.7294 32.1987C89.3745 32.2908 89.9671 31.8165 90.0518 31.1373C90.1378 30.4612 89.6552 29.8344 88.9739 29.7384C88.2904 29.6645 87.6895 30.2242 87.641 30.8953Z" fill="#FCFCFC"/>
<path fill-rule="evenodd" clip-rule="evenodd" d="M80.8247 30.8734C80.8641 31.5553 81.4228 32.0788 82.0744 32.044C82.7247 32.0082 83.2517 31.4254 83.2503 30.7429C83.2489 30.0603 82.6901 29.5369 82.0019 29.5732C81.3114 29.6098 80.7875 30.1912 80.8247 30.8734Z" fill="#FCFCFC"/>
<path fill-rule="evenodd" clip-rule="evenodd" d="M74.0502 31.6833C74.1764 32.3531 74.8023 32.8181 75.4479 32.7203C76.0935 32.6224 76.5426 31.997 76.4538 31.3202C76.3651 30.6455 75.7392 30.1805 75.0572 30.2842C74.376 30.3846 73.9249 31.0124 74.0502 31.6833Z" fill="#FCFCFC"/>
<path fill-rule="evenodd" clip-rule="evenodd" d="M67.4538 33.4484C67.6646 34.0942 68.3336 34.4406 68.9493 34.2218C69.569 34.0224 69.9501 33.3886 69.772 32.7219C69.599 32.0735 68.9061 31.6471 68.2493 31.8558C67.5981 32.0892 67.2418 32.8017 67.4538 33.4484Z" fill="#FCFCFC"/>
<path fill-rule="evenodd" clip-rule="evenodd" d="M61.1237 36.0437C61.4161 36.657 62.1355 36.927 62.7273 36.6503C63.3198 36.3702 63.5881 35.6349 63.3289 35.0051C63.0686 34.3764 62.3524 34.105 61.7265 34.3995C61.1005 34.694 60.8334 35.4303 61.1237 36.0437Z" fill="#FCFCFC"/>
<path fill-rule="evenodd" clip-rule="evenodd" d="M55.1547 39.4031C55.5254 39.9711 56.2827 40.1604 56.8429 39.8254C57.4041 39.4893 57.5875 38.7396 57.2486 38.152C56.9097 37.5643 56.1542 37.3726 55.5603 37.7297C54.964 38.0848 54.783 38.8364 55.1547 39.4031Z" fill="#FCFCFC"/>
<path fill-rule="evenodd" clip-rule="evenodd" d="M49.7267 43.6061C50.1694 44.1195 50.9209 44.1777 51.4047 43.7353C51.8895 43.2917 52.0133 42.5789 51.5923 42.0293C51.1897 41.503 50.3728 41.3626 49.8588 41.83C49.3448 42.2974 49.2862 43.0925 49.7267 43.6061Z" fill="#FCFCFC"/>
<path d="M50.3812 124.296C28.1767 105.881 25.0414 72.6664 43.3782 50.1071M43.3782 50.1071L44.8575 65.7677M43.3782 50.1071L27.8841 51.691" stroke="#FCFCFC" stroke-miterlimit="10"/>
</g>
<defs>
<clipPath id="clip0_1925_460">
<rect width="67.3419" height="75.4625" fill="white" transform="translate(50.5066 48.8914)"/>
</clipPath>
<clipPath id="clip1_1925_460">
<rect width="107.975" height="119.386" fill="white" transform="matrix(-0.630745 0.775991 -0.769732 -0.638368 160 76.2121)"/>
</clipPath>
</defs>
</svg>
