<svg width="172" height="15" viewBox="0 0 172 15" fill="none" xmlns="http://www.w3.org/2000/svg">
<rect y="15" width="15" height="1" rx="0.5" transform="rotate(-90 0 15)" fill="#FCFCFC"/>
<rect x="36" y="15" width="15" height="1" rx="0.5" transform="rotate(-90 36 15)" fill="#FCFCFC"/>
<rect x="72" y="15" width="15" height="1" rx="0.5" transform="rotate(-90 72 15)" fill="#FCFCFC"/>
<rect x="108" y="15" width="15" height="1" rx="0.5" transform="rotate(-90 108 15)" fill="#FCFCFC"/>
<rect x="144" y="15" width="15" height="1" rx="0.5" transform="rotate(-90 144 15)" fill="#FCFCFC"/>
<rect x="18" y="15" width="15" height="1" rx="0.5" transform="rotate(-90 18 15)" fill="#FCFCFC"/>
<rect x="54" y="15" width="15" height="1" rx="0.5" transform="rotate(-90 54 15)" fill="#FCFCFC"/>
<rect x="90" y="15" width="15" height="1" rx="0.5" transform="rotate(-90 90 15)" fill="#FCFCFC"/>
<rect x="126" y="15" width="15" height="1" rx="0.5" transform="rotate(-90 126 15)" fill="#FCFCFC"/>
<rect x="162" y="15" width="15" height="1" rx="0.5" transform="rotate(-90 162 15)" fill="#FCFCFC"/>
<rect x="9" y="15" width="15" height="1" rx="0.5" transform="rotate(-90 9 15)" fill="#FCFCFC"/>
<rect x="45" y="15" width="15" height="1" rx="0.5" transform="rotate(-90 45 15)" fill="#FCFCFC"/>
<rect x="81" y="15" width="15" height="1" rx="0.5" transform="rotate(-90 81 15)" fill="#FCFCFC"/>
<rect x="117" y="15" width="15" height="1" rx="0.5" transform="rotate(-90 117 15)" fill="#FCFCFC"/>
<rect x="153" y="15" width="15" height="1" rx="0.5" transform="rotate(-90 153 15)" fill="#FCFCFC"/>
<rect x="27" y="15" width="15" height="1" rx="0.5" transform="rotate(-90 27 15)" fill="#FCFCFC"/>
<rect x="63" y="15" width="15" height="1" rx="0.5" transform="rotate(-90 63 15)" fill="#FCFCFC"/>
<rect x="99" y="15" width="15" height="1" rx="0.5" transform="rotate(-90 99 15)" fill="#FCFCFC"/>
<rect x="135" y="15" width="15" height="1" rx="0.5" transform="rotate(-90 135 15)" fill="#FCFCFC"/>
<rect x="171" y="15" width="15" height="1" rx="0.5" transform="rotate(-90 171 15)" fill="#FCFCFC"/>
</svg>
